<svg xmlns="http://www.w3.org/2000/svg" width="889.88" height="169.209"><path style="text-indent:0;text-align:start;line-height:normal;text-transform:none;block-progression:tb;-inkscape-font-specification:Sans" d="M887.383 20.563c0-1.623-.104-2.68-.656-3.53-.553-.852-1.467-1.348-2.907-1.94-.98-.4-3.067-.96-5.75-1.592-2.682-.632-5.923-1.314-9.093-1.906-6.323-1.18-13.54-2.55-16-3.062-6.897-1.432-25.235-3.868-37.563-5-6.16-.566-33.094-1.03-60.062-1.03-40.13-.002-53.393.377-73.032 2-14.302 1.18-28.76 2.59-40.156 3.874-5.698.64-10.628 1.25-14.406 1.78-3.78.533-6.35.95-7.5 1.313-.718.227-3.11.673-6.188 1.124-3.077.452-6.906.953-10.75 1.375-3.86.424-7.84.968-11.187 1.53-3.346.563-6.014 1.105-7.313 1.563-2.327.822-7.877 1.995-12.156 2.53-4.35.547-10.662 1.83-14.156 2.876-3.41 1.02-8.492 2.168-11.188 2.53-2.806.378-12.676 2.19-22.03 4.032-9.338 1.84-22.62 4.05-29.47 4.937-6.88.89-15.666 2.127-19.53 2.75-13.76 2.217-26.657 2.797-77.907 3.406-38.96.462-64.038.203-100-1.032-26.4-.906-55.19-1.79-64-1.968-34.997-.71-86.696-2.633-97.97-3.625-6.676-.587-30.473-1.128-53.03-1.218-34.854-.14-42.014.07-47.625 1.47-8.996 2.243-14.82 5.74-22 13.217-6.11 6.363-8.94 11.275-10.375 17.937-.427 1.983-.81 5.426-.875 7.78-.076 2.785 1.115 7.902 2.75 13.032s3.695 10.203 5.47 12.812c4.64 6.824 12.023 13.063 19.874 16.812l7.562 3.625.094.03h82.125c45.103 0 121.848-.37 170.562-.843 87.984-.854 107.293-.54 146.907 2.47 7.962.604 18.772 1.733 23.968 2.5 5.228.77 15.8 2.293 23.5 3.374 11.955 1.678 26.877 4.217 39.782 6.688 12.904 2.47 23.84 4.898 27.625 6.22 1.46.51 5.246 1.414 8.562 2.062 3.272.64 13.396 2.88 22.468 5 9.082 2.122 18.493 4.148 21.062 4.5 2.44.334 10.323 1.683 17.47 3 19.354 3.566 42.946 6.795 58.562 8.03 4.12.327 17.85 1.492 30.5 2.563 33.93 2.874 101.826 2.83 125.53-.093 4.554-.562 8.836-1.128 12.032-1.563 1.598-.218 2.903-.384 3.875-.53.485-.075.89-.137 1.187-.19.297-.05.456-.098.625-.155.442-.148.6-.436.812-.812.212-.377.41-.86.625-1.438.432-1.157.868-2.682 1.218-4.312 2.204-10.273 6.174-27.384 10.156-43.844 2.13-8.81 4.61-20.277 5.53-25.53.91-5.177 4.526-21.23 8.033-35.595 1.755-7.19 3.373-14.154 4.53-19.562.58-2.704 1.05-5.007 1.376-6.78.325-1.775.5-2.97.5-3.595zm-1 0c0 .387-.178 1.65-.5 3.406-.323 1.757-.798 4.083-1.375 6.78-1.155 5.396-2.747 12.32-4.5 19.5-3.51 14.378-7.106 30.383-8.03 35.657-.913 5.196-3.406 16.68-5.533 25.47-3.983 16.466-7.948 33.583-10.156 43.874-.342 1.588-.78 3.063-1.188 4.157-.205.547-.392 1.01-.563 1.312-.172.303-.4.424-.25.374.02-.007-.185.045-.47.094-.284.05-.674.115-1.156.188-.964.145-2.31.345-3.906.562-3.19.435-7.45.97-12 1.53-23.474 2.896-91.527 2.96-125.344.095-12.65-1.07-26.37-2.236-30.5-2.562-15.557-1.23-39.12-4.44-58.437-8-7.155-1.318-15.02-2.687-17.532-3.03-2.38-.327-11.87-2.35-20.937-4.47-9.08-2.12-19.204-4.38-22.53-5.03-3.285-.642-7.15-1.58-8.44-2.032-3.986-1.392-14.83-3.745-27.75-6.22-12.918-2.472-27.863-5.037-39.843-6.717-7.698-1.08-18.277-2.604-23.5-3.374-5.253-.775-16.043-1.894-24.03-2.5-39.633-3.01-58.982-3.324-146.97-2.47-48.71.474-125.465.845-170.562.845H38.477l-7.47-3.562c-7.68-3.668-14.945-9.818-19.468-16.47-1.633-2.4-3.726-7.482-5.345-12.56-1.618-5.08-2.754-10.242-2.687-12.69.062-2.268.44-5.725.844-7.592 1.4-6.498 4.114-11.177 10.156-17.47 7.103-7.396 12.64-10.727 21.5-12.937 5.44-1.357 12.526-1.577 47.375-1.438 22.543.09 46.446.645 52.97 1.22 11.425 1.004 63.016 2.915 98.03 3.624 8.788.178 37.57 1.062 63.97 1.968 35.972 1.235 61.06 1.494 100.03 1.032 51.256-.61 64.233-1.178 78.062-3.407 3.836-.62 12.63-1.86 19.5-2.75 6.9-.894 20.17-3.125 29.532-4.97 9.345-1.84 19.275-3.668 21.968-4.03 2.805-.378 7.87-1.523 11.344-2.563 3.388-1.015 9.723-2.276 14-2.813 4.346-.545 9.83-1.675 12.343-2.562 1.122-.396 3.832-.973 7.156-1.53 3.324-.56 7.316-1.142 11.155-1.564 3.856-.424 7.69-.89 10.782-1.344 3.092-.453 5.368-.857 6.312-1.156.945-.3 3.61-.782 7.374-1.312s8.683-1.14 14.375-1.782c11.383-1.28 25.832-2.663 40.124-3.843 19.614-1.62 32.813-2 72.938-2 26.957 0 54.03.487 59.968 1.032 12.288 1.128 30.697 3.563 37.47 4.97 2.488.515 9.672 1.91 16 3.092 3.153.59 6.397 1.278 9.062 1.907 2.664.63 4.785 1.2 5.593 1.532 1.396.572 2.105 1.002 2.47 1.562.363.56.468 1.39.468 2.97z" color="#000" fill="#29abe2" stroke="#29abe2" stroke-width="5" overflow="visible" font-family="Sans"/><text style="text-align:start;line-height:187.99999951999998871%;-inkscape-font-specification:Droid Sans Mono" x="386.096" y="531.224" font-size="42.351" letter-spacing="0" word-spacing="0" fill="#6c5353" font-family="Droid Sans Mono" transform="translate(97.13 -432.094)"><tspan x="386.096" y="531.224">Happy Birthday!</tspan></text></svg>