<?xml version="1.0" encoding="UTF-8" standalone="no"?>
<!-- Created with Inkscape (http://www.inkscape.org/) -->

<svg
   xmlns:dc="http://purl.org/dc/elements/1.1/"
   xmlns:cc="http://creativecommons.org/ns#"
   xmlns:rdf="http://www.w3.org/1999/02/22-rdf-syntax-ns#"
   xmlns:svg="http://www.w3.org/2000/svg"
   xmlns="http://www.w3.org/2000/svg"
   xmlns:sodipodi="http://sodipodi.sourceforge.net/DTD/sodipodi-0.dtd"
   xmlns:inkscape="http://www.inkscape.org/namespaces/inkscape"
   width="889.88019"
   height="169.20927"
   id="svg2"
   version="1.1"
   inkscape:version="0.48.4 r9939"
   sodipodi:docname="outline-spatula-horizontal-message.svg">
  <defs
     id="defs4" />
  <sodipodi:namedview
     id="base"
     pagecolor="#ffffff"
     bordercolor="#666666"
     borderopacity="1.0"
     inkscape:pageopacity="0.0"
     inkscape:pageshadow="2"
     inkscape:zoom="0.79250282"
     inkscape:cx="469.17743"
     inkscape:cy="56.19451"
     inkscape:document-units="px"
     inkscape:current-layer="layer1"
     showgrid="false"
     inkscape:window-width="1366"
     inkscape:window-height="740"
     inkscape:window-x="0"
     inkscape:window-y="0"
     inkscape:window-maximized="1"
     fit-margin-top="0"
     fit-margin-left="0"
     fit-margin-right="0"
     fit-margin-bottom="0"
     showguides="true"
     inkscape:guide-bbox="true" />
  <metadata
     id="metadata7">
    <rdf:RDF>
      <cc:Work
         rdf:about="">
        <dc:format>image/svg+xml</dc:format>
        <dc:type
           rdf:resource="http://purl.org/dc/dcmitype/StillImage" />
        <dc:title />
      </cc:Work>
    </rdf:RDF>
  </metadata>
  <g
     inkscape:label="Layer 1"
     inkscape:groupmode="layer"
     id="layer1"
     transform="translate(97.130189,-432.09375)">
    <path
       style="font-size:medium;font-style:normal;font-variant:normal;font-weight:normal;font-stretch:normal;text-indent:0;text-align:start;text-decoration:none;line-height:normal;letter-spacing:normal;word-spacing:normal;text-transform:none;direction:ltr;block-progression:tb;writing-mode:lr-tb;text-anchor:start;baseline-shift:baseline;color:#000000;fill:#29abe2;fill-opacity:1;fill-rule:nonzero;stroke:#29abe2;stroke-width:5;stroke-miterlimit:4;stroke-opacity:1;stroke-dasharray:none;marker:none;visibility:visible;display:inline;overflow:visible;enable-background:accumulate;font-family:Sans;-inkscape-font-specification:Sans"
       d="m 790.25273,452.65698 c 0,-1.62297 -0.10399,-2.68076 -0.65625,-3.53125 -0.55227,-0.85049 -1.46709,-1.34723 -2.90625,-1.9375 -0.97916,-0.4016 -3.06762,-0.96096 -5.75,-1.59375 -2.68239,-0.63279 -5.92307,-1.3144 -9.09375,-1.90625 -6.32288,-1.18024 -13.53868,-2.5516 -16,-3.0625 -6.89711,-1.43165 -25.23421,-3.86805 -37.5625,-5 -6.16018,-0.56562 -33.09438,-1.03079 -60.0625,-1.03125 -40.1306,-6.9e-4 -53.39227,0.37796 -73.03125,2 -14.30203,1.18124 -28.75996,2.5926 -40.15625,3.875 -5.69815,0.6412 -10.62782,1.24887 -14.40625,1.78125 -3.77843,0.53238 -6.34884,0.94806 -7.5,1.3125 -0.71798,0.2273 -3.10961,0.67384 -6.1875,1.125 -3.07789,0.45116 -6.90598,0.95261 -10.75,1.375 -3.86024,0.42418 -7.84167,0.96892 -11.1875,1.53125 -3.34583,0.56233 -6.01387,1.10385 -7.3125,1.5625 -2.32745,0.82202 -7.87715,1.9947 -12.15625,2.53125 -4.35014,0.54546 -10.66237,1.82877 -14.15625,2.875 -3.40999,1.0211 -8.49229,2.16864 -11.1875,2.53125 -2.80636,0.37756 -12.67652,2.18862 -22.03125,4.03125 -9.3372,1.83918 -22.61819,4.05093 -29.46875,4.9375 -6.87973,0.89034 -15.66636,2.12703 -19.53125,2.75 -13.75818,2.21764 -26.65572,2.7976 -77.90625,3.40625 -38.96008,0.46269 -64.03803,0.20331 -100,-1.03125 -26.40128,-0.90634 -55.18849,-1.79032 -64,-1.96875 -34.99725,-0.70871 -86.695915,-2.63285 -97.968755,-3.625 -6.67741,-0.5877 -30.4745399,-1.12902 -53.03125,-1.21875 -34.85361,-0.1386 -42.01394,0.0692 -47.625,1.46875 -8.99618,2.24392 -14.81964,5.74114 -22,13.21875 -6.11099,6.36395 -8.939,11.27517 -10.375,17.9375 -0.42733,1.9826 -0.81053,5.42642 -0.875,7.78125 -0.0761,2.78348 1.11487,7.90119 2.75,13.03125 1.63513,5.13006 3.69468,10.20375 5.46875,12.8125 4.64085,6.82428 12.02403,13.0631 19.875,16.8125 l 7.5625,3.625 0.0937,0.0313 0.125,0 82,0 c 45.10286,0 121.848425,-0.37069 170.562505,-0.84375 87.98366,-0.85441 107.29276,-0.54057 146.90625,2.46875 7.96234,0.60487 18.77256,1.73387 23.96875,2.5 5.22779,0.77078 15.79871,2.29465 23.5,3.375 11.95467,1.67702 26.87683,4.21668 39.78125,6.6875 12.90442,2.47082 23.84157,4.89781 27.625,6.21875 1.45971,0.50965 5.24598,1.41463 8.5625,2.0625 3.2728,0.63933 13.39726,2.87993 22.46875,5 9.08164,2.12243 18.49342,4.14812 21.0625,4.5 2.43876,0.33403 10.323,1.68326 17.46875,3 19.35483,3.5665 42.94668,6.79545 58.5625,8.03125 4.1204,0.32608 17.85049,1.49128 30.5,2.5625 33.92972,2.87331 101.8267,2.82897 125.53125,-0.0937 4.55313,-0.56139 8.83494,-1.1273 12.03125,-1.5625 1.59816,-0.2176 2.90262,-0.38416 3.875,-0.53125 0.48619,-0.0736 0.89045,-0.13585 1.1875,-0.1875 0.29705,-0.0516 0.4561,-0.0996 0.625,-0.15625 0.44225,-0.14832 0.60046,-0.43599 0.8125,-0.8125 0.21204,-0.37651 0.40855,-0.85915 0.625,-1.4375 0.4329,-1.15671 0.86881,-2.68184 1.21875,-4.3125 2.20453,-10.27282 6.17426,-27.38329 10.15625,-43.84375 2.13121,-8.80989 4.60964,-20.27706 5.53125,-25.53125 0.90784,-5.17575 4.52461,-21.22905 8.03125,-35.59375 1.75512,-7.18976 3.37381,-14.15483 4.53125,-19.5625 0.57871,-2.70384 1.04965,-5.00759 1.375,-6.78125 0.32535,-1.77366 0.5,-2.97041 0.5,-3.59375 z m -1,0 c 0,0.38647 -0.17754,1.64833 -0.5,3.40625 -0.32247,1.75792 -0.79762,4.08365 -1.375,6.78125 -1.15477,5.3952 -2.74697,12.31882 -4.5,19.5 -3.50969,14.3772 -7.10613,30.382 -8.03125,35.65625 -0.91137,5.19581 -3.40482,16.67864 -5.53125,25.46875 -3.9836,16.46714 -7.94798,33.58474 -10.15625,43.875 -0.34067,1.58747 -0.77799,3.06205 -1.1875,4.15625 -0.20475,0.5471 -0.39164,1.00911 -0.5625,1.3125 -0.17086,0.30339 -0.39848,0.4248 -0.25,0.375 0.022,-0.007 -0.18421,0.0443 -0.46875,0.0937 -0.28454,0.0495 -0.67432,0.1146 -1.15625,0.1875 -0.96387,0.1458 -2.31107,0.34531 -3.90625,0.5625 -3.19037,0.43439 -7.45052,0.97031 -12,1.53125 -23.47425,2.89432 -91.52705,2.95748 -125.34375,0.0937 -12.65049,-1.0713 -26.3704,-2.2357 -30.5,-2.5625 -15.55766,-1.2312 -39.11895,-4.44018 -58.4375,-8 -7.15425,-1.3183 -15.02001,-2.6873 -17.53125,-3.03125 -2.38092,-0.3261 -11.86914,-2.34942 -20.9375,-4.46875 -9.07851,-2.12171 -19.20405,-4.3813 -22.53125,-5.03125 -3.28348,-0.64141 -7.14721,-1.58076 -8.4375,-2.03125 -3.98716,-1.39208 -14.8306,-3.74506 -27.75,-6.21875 -12.9194,-2.47369 -27.8643,-5.03826 -39.84375,-6.71875 -7.69871,-1.07999 -18.27779,-2.60504 -23.5,-3.375 -5.25381,-0.77463 -16.04359,-1.89321 -24.03125,-2.5 -39.63253,-3.01076 -58.98119,-3.3232 -146.96875,-2.46875 -48.70918,0.47302 -125.465365,0.84375 -170.562505,0.84375 l -81.90625,0 -7.46875,-3.5625 c -7.68081,-3.66814 -14.9462,-9.81845 -19.46875,-16.46875 -1.63265,-2.40078 -3.72491,-7.48355 -5.34375,-12.5625 -1.61884,-5.07895 -2.75442,-10.24109 -2.6875,-12.6875 0.0621,-2.26951 0.44124,-5.72635 0.84375,-7.59375 1.40042,-6.49727 4.1141,-11.17648 10.15625,-17.46875 7.10288,-7.39691 12.64012,-10.72758 21.5,-12.9375 5.43934,-1.35673 12.52611,-1.57608 47.375,-1.4375 22.5432901,0.0897 46.44616,0.64467 52.96875,1.21875 11.42628,1.00565 63.017705,2.91595 98.031255,3.625 8.78849,0.17797 37.57003,1.06249 63.96875,1.96875 35.97311,1.23494 61.06165,1.49406 100.03125,1.03125 51.25587,-0.60871 64.23344,-1.17719 78.0625,-3.40625 3.83511,-0.61817 12.62973,-1.86088 19.5,-2.75 6.89944,-0.89289 20.16845,-3.12453 29.53125,-4.96875 9.34527,-1.84077 19.27511,-3.66885 21.96875,-4.03125 2.80479,-0.37735 7.87058,-1.52248 11.34375,-2.5625 3.38928,-1.01491 9.72386,-2.27632 14,-2.8125 4.3472,-0.54509 9.83066,-1.67492 12.34375,-2.5625 1.12165,-0.39614 3.8319,-0.97253 7.15625,-1.53125 3.32435,-0.55872 7.31649,-1.14058 11.15625,-1.5625 3.85598,-0.42371 7.68857,-0.89042 10.78125,-1.34375 3.09268,-0.45333 5.36824,-0.85732 6.3125,-1.15625 0.94627,-0.29957 3.61141,-0.78221 7.375,-1.3125 3.76359,-0.53029 8.683,-1.14074 14.375,-1.78125 11.384,-1.28101 25.83304,-2.66334 40.125,-3.84375 19.61428,-1.62 32.81288,-2.00069 72.9375,-2 26.95688,4.6e-4 54.02893,0.48587 59.96875,1.03125 12.28771,1.12823 30.69674,3.56306 37.46875,4.96875 2.48868,0.51658 9.67288,1.91271 16,3.09375 3.15431,0.58879 6.39801,1.27768 9.0625,1.90625 2.66448,0.62857 4.7854,1.19971 5.59375,1.53125 1.39545,0.57235 2.10466,1.00181 2.46875,1.5625 0.36408,0.56069 0.46875,1.38901 0.46875,2.96875 z"
       inkscape:connector-curvature="0"
       id="path3161" />
    <flowRoot
       xml:space="preserve"
       id="flowRoot3891"
       style="font-size:56px;font-style:normal;font-variant:normal;font-weight:normal;font-stretch:normal;text-align:start;line-height:187.99999952%;letter-spacing:0px;word-spacing:0px;writing-mode:lr-tb;text-anchor:start;fill:#000000;fill-opacity:1;stroke:none;font-family:Droid Sans Mono;-inkscape-font-specification:Droid Sans Mono"
       transform="translate(-97.130189,432.09375)"><flowRegion
         id="flowRegion3893"><rect
           id="rect3895"
           width="263.72147"
           height="56.782131"
           x="564.03583"
           y="51.859535" /></flowRegion><flowPara
         id="flowPara3897">Ha</flowPara></flowRoot>    <text
       xml:space="preserve"
       style="font-size:42.35147476000000211px;font-style:normal;font-variant:normal;font-weight:normal;font-stretch:normal;text-align:start;line-height:187.99999951999998871%;letter-spacing:0px;word-spacing:0px;writing-mode:lr-tb;text-anchor:start;fill:#6c5353;fill-opacity:1;stroke:none;font-family:Droid Sans Mono;-inkscape-font-specification:Droid Sans Mono"
       x="386.09586"
       y="531.22382"
       id="text3899"
       sodipodi:linespacing="188%"><tspan
         sodipodi:role="line"
         id="tspan3901"
         x="386.09586"
         y="531.22382"
         style="fill:#6c5353">Happy Birthday!</tspan></text>
  </g>
</svg>
