<?xml version="1.0" standalone="no"?>
<!DOCTYPE svg PUBLIC "-//W3C//DTD SVG 20010904//EN"
 "http://www.w3.org/TR/2001/REC-SVG-20010904/DTD/svg10.dtd">
<svg version="1.0" xmlns="http://www.w3.org/2000/svg"
 width="260.000000pt" height="260.000000pt" viewBox="0 0 260.000000 260.000000"
 preserveAspectRatio="xMidYMid meet">
<metadata>
Created by potrace 1.11, written by Peter Selinger 2001-2013
</metadata>
<g transform="translate(0.000000,260.000000) scale(0.100000,-0.100000)"
fill="#000000" stroke="none">
<path d="M2016 2588 c3 -4 -1 -8 -9 -8 -13 0 -122 -88 -122 -99 0 -3 -3 -5 -8
-3 -4 1 -6 -2 -5 -7 2 -5 -10 -20 -25 -35 -15 -14 -26 -26 -24 -26 2 0 -14
-20 -37 -44 -84 -89 -143 -156 -137 -156 3 0 -7 -11 -23 -25 -16 -14 -26 -25
-22 -25 3 0 0 -13 -9 -30 -8 -16 -15 -41 -15 -55 0 -14 -4 -24 -8 -21 -7 4 -7
-60 2 -181 2 -34 -1 -50 -7 -46 -6 4 -7 1 -2 -7 11 -18 13 -80 2 -80 -4 0 -5
-5 -2 -11 4 -6 -44 -60 -108 -122 -64 -62 -152 -147 -196 -189 -44 -43 -86
-78 -92 -78 -7 0 -10 -3 -6 -6 7 -8 -17 -34 -32 -34 -6 0 -10 -3 -8 -8 1 -4
-2 -9 -8 -12 -5 -2 -47 -41 -91 -85 -167 -164 -254 -245 -264 -245 -6 0 -10
-7 -10 -15 0 -9 -8 -19 -17 -22 -22 -9 -53 -40 -46 -47 4 -3 1 -6 -5 -6 -10 0
-149 -129 -289 -268 -34 -35 -63 -60 -63 -55 0 4 -9 -5 -20 -22 -11 -16 -20
-26 -20 -21 0 5 -11 -4 -25 -20 -14 -16 -25 -32 -25 -37 0 -4 -3 -6 -8 -5 -11
4 -202 -183 -218 -214 -17 -33 -18 -99 -1 -117 10 -11 9 -12 -3 -6 -13 8 -13
7 0 -11 27 -35 73 -73 81 -68 5 3 9 0 9 -6 0 -7 21 -10 59 -9 l59 2 160 164
c88 89 158 163 155 163 -2 0 20 24 49 53 29 29 100 103 158 163 58 60 108 108
113 106 4 -1 6 1 6 5 -3 18 2 34 8 30 5 -3 17 6 28 20 20 24 162 174 323 341
45 47 82 89 82 94 0 5 5 6 10 3 6 -3 10 -2 10 4 0 10 66 81 286 308 l112 115
70 0 c38 0 76 -3 83 -7 8 -6 10 -4 4 5 -5 9 -2 10 12 6 29 -9 98 -10 113 -1 8
5 11 4 7 -2 -4 -7 3 -10 18 -9 14 0 25 3 25 6 0 5 28 10 68 13 6 0 12 4 12 9
0 4 5 8 11 8 12 0 69 44 127 98 17 16 32 28 32 26 0 -2 15 11 34 29 81 78 138
127 147 127 6 0 8 4 5 8 -2 4 9 17 25 27 16 11 29 24 29 29 0 5 10 17 22 27
11 11 18 19 14 19 -4 0 0 10 8 22 18 26 22 118 5 118 -6 0 -9 9 -6 20 3 13 0
20 -9 20 -7 0 -16 11 -20 25 -3 14 -10 22 -15 19 -5 -3 -9 -1 -9 5 0 5 -20 30
-44 55 -24 25 -42 46 -41 46 2 0 -22 25 -53 55 -116 112 -185 175 -194 175 -5
0 -6 5 -2 12 4 6 3 8 -4 4 -6 -3 -13 -2 -17 4 -3 5 -15 10 -26 10 -10 0 -19 5
-19 11 0 6 -23 9 -60 8 -32 -1 -57 -6 -54 -11z m129 -111 c13 -12 37 -32 53
-45 69 -52 223 -212 216 -225 -4 -6 -4 -9 0 -5 9 8 56 -35 56 -51 0 -6 6 -14
13 -18 6 -4 17 -22 23 -40 10 -26 9 -33 -4 -38 -8 -3 -12 -8 -9 -12 5 -5 -158
-173 -168 -173 -3 0 -19 -15 -38 -32 -72 -71 -161 -144 -193 -160 -19 -9 -34
-14 -34 -12 0 3 -9 0 -19 -6 -13 -7 -22 -7 -26 0 -3 5 -11 10 -16 10 -6 0 -7
-5 -3 -12 5 -7 3 -8 -7 -3 -18 12 -250 14 -271 3 -12 -6 -18 -5 -18 4 0 6 -7
3 -15 -8 -8 -10 -15 -16 -15 -13 0 9 -230 -224 -230 -234 0 -4 -3 -6 -7 -4 -5
3 -19 -10 -33 -29 -14 -18 -31 -34 -39 -34 -8 0 -12 -2 -9 -6 3 -3 -36 -48
-86 -100 -51 -51 -91 -94 -89 -94 1 0 -14 -17 -34 -38 -20 -20 -41 -35 -47
-34 -6 2 -8 0 -4 -4 4 -4 -8 -22 -27 -41 -19 -18 -33 -33 -31 -33 2 0 -41 -45
-95 -100 -54 -55 -96 -100 -94 -100 2 0 -8 -13 -23 -28 -15 -15 -30 -26 -34
-24 -5 2 -8 -2 -8 -7 0 -6 -29 -40 -64 -76 -35 -36 -63 -65 -61 -65 1 0 -59
-63 -134 -140 -75 -77 -135 -140 -133 -140 2 0 -21 -24 -50 -54 -29 -30 -75
-77 -102 -105 -27 -28 -54 -51 -60 -51 -6 0 -4 6 5 13 28 21 31 52 9 72 -28
26 -60 26 -69 2 -6 -15 -9 -17 -13 -6 -2 8 10 28 29 46 18 17 33 30 33 29 0
-3 185 173 311 295 60 58 111 104 114 101 3 -3 5 3 5 13 0 10 3 16 6 13 3 -4
18 7 33 23 16 16 33 29 40 29 6 0 10 4 9 9 -4 11 49 61 56 53 3 -3 6 2 6 11 0
9 4 17 9 17 5 0 53 43 106 95 53 52 100 95 105 95 6 0 10 6 10 13 0 7 9 19 21
27 12 8 48 41 80 72 32 32 59 54 59 50 1 -4 7 4 15 18 8 14 14 22 15 19 0 -4
46 38 101 92 56 55 106 99 112 99 6 0 8 3 5 6 -3 3 17 26 46 52 28 26 71 67
95 92 25 25 41 38 36 30 -11 -20 62 59 83 90 14 20 17 50 17 162 1 77 -3 138
-8 138 -5 0 -4 7 3 15 9 11 10 18 1 28 -6 8 -8 17 -4 21 4 3 8 14 9 22 1 9 6
23 10 32 4 9 8 20 8 23 1 7 77 95 133 155 23 24 41 44 39 44 -1 0 37 41 85 90
48 50 92 90 98 90 6 0 11 5 11 11 0 18 69 0 95 -24z m-2050 -2307 c-3 -5 -1
-10 5 -10 6 0 8 -4 5 -10 -10 -16 -23 -11 -20 8 5 23 4 22 11 22 3 0 2 -4 -1
-10z m29 -57 c3 -7 2 -13 -3 -13 -5 0 -14 6 -20 13 -8 10 -7 14 4 14 8 0 16
-6 19 -14z m40 -21 c3 -5 -1 -9 -9 -9 -8 0 -15 4 -15 9 0 10 17 10 24 0z"/>
</g>
</svg>
