<?xml version="1.0" encoding="UTF-8" standalone="no"?>
<!-- Created with Inkscape (http://www.inkscape.org/) -->

<svg
   xmlns:dc="http://purl.org/dc/elements/1.1/"
   xmlns:cc="http://creativecommons.org/ns#"
   xmlns:rdf="http://www.w3.org/1999/02/22-rdf-syntax-ns#"
   xmlns:svg="http://www.w3.org/2000/svg"
   xmlns="http://www.w3.org/2000/svg"
   xmlns:sodipodi="http://sodipodi.sourceforge.net/DTD/sodipodi-0.dtd"
   xmlns:inkscape="http://www.inkscape.org/namespaces/inkscape"
   width="960"
   height="1052.3622"
   id="svg5187"
   version="1.1"
   inkscape:version="0.48.4 r9939"
   sodipodi:docname="New document 14">
  <defs
     id="defs5189">
    <inkscape:path-effect
       effect="envelope"
       id="path-effect5936"
       is_visible="true"
       yy="true"
       xx="true"
       bendpath1="m 128.13672,388.05958 460.71484,0"
       bendpath2="m 588.85156,388.05958 0,56"
       bendpath3="m 128.13672,444.05958 460.71484,0"
       bendpath4="m 128.13672,388.05958 0,56" />
  </defs>
  <sodipodi:namedview
     id="base"
     pagecolor="#ffffff"
     bordercolor="#666666"
     borderopacity="1.0"
     inkscape:pageopacity="0.0"
     inkscape:pageshadow="2"
     inkscape:zoom="0.7"
     inkscape:cx="406.02084"
     inkscape:cy="538.76575"
     inkscape:document-units="px"
     inkscape:current-layer="layer1"
     showgrid="false"
     inkscape:window-width="1920"
     inkscape:window-height="1052"
     inkscape:window-x="1366"
     inkscape:window-y="0"
     inkscape:window-maximized="1" />
  <metadata
     id="metadata5192">
    <rdf:RDF>
      <cc:Work
         rdf:about="">
        <dc:format>image/svg+xml</dc:format>
        <dc:type
           rdf:resource="http://purl.org/dc/dcmitype/StillImage" />
        <dc:title></dc:title>
      </cc:Work>
    </rdf:RDF>
  </metadata>
  <g
     inkscape:label="Layer 1"
     inkscape:groupmode="layer"
     id="layer1">
    <path
       style="fill:#ff2a2a;fill-opacity:1;fill-rule:nonzero;stroke:#000000;stroke-width:0.81269610000000003;stroke-linecap:butt;stroke-linejoin:miter;stroke-miterlimit:4;stroke-opacity:1;stroke-dasharray:none;stroke-dashoffset:0;opacity:0.48559670999999999"
       d="m 38.7033,406.64549 c 3.10223,-6.525 9.01379,-11.08802 18.32744,-14.14665 6.61547,-2.17254 12.73788,-2.29622 88.37571,-1.78539 44.6973,0.30188 115.80154,1.71335 158.00942,3.13662 42.20787,1.42327 117.6641,3.16532 167.68049,3.87123 l 90.93889,1.28347 19.3828,-5.94311 c 10.66055,-3.26872 37.26117,-12.50749 59.11251,-20.5306 60.63302,-22.26252 66.00647,-23.50804 113.36101,-26.27614 72.03998,-4.21109 130.2337,-4.57897 148.35357,-0.93783 11.56976,2.32489 21.43206,10.76764 28.05176,24.01395 4.8906,9.78631 5.5116,20.52596 4.6015,79.57156 -0.7316,47.46503 -1.1896,56.82536 -3.1027,63.41243 -4.2524,14.64175 -11.5373,21.73364 -27.38463,26.65908 -8.82344,2.74238 -10.39159,2.79657 -63.8678,2.20766 -60.68078,-0.66827 -109.47117,-3.47103 -131.43354,-7.55019 -17.1934,-3.1934 -27.24565,-6.36738 -63.20758,-19.95772 -55.5706,-21.00063 -70.43225,-25.34622 -98.06732,-28.6752 -19.26026,-2.32012 -163.07425,-1.81219 -290.07501,1.02452 -64.6598,1.44425 -117.30697,1.95081 -149.0044,1.43371 -61.64218,-1.00562 -63.27132,-1.39823 -69.10551,-16.65375 -2.44549,-6.3944 -2.81647,-10.32532 -3.12006,-33.05949 -0.31249,-23.40246 -0.11033,-26.2947 2.17345,-31.09816 l 0,0 z"
       id="path5347"
       inkscape:connector-curvature="0" />
    <g
       style="font-size:56px;font-style:normal;font-variant:normal;font-weight:normal;font-stretch:normal;text-align:start;line-height:187.99999951999998871%;letter-spacing:0px;word-spacing:0px;writing-mode:lr-tb;text-anchor:start;fill:#000000;fill-opacity:1;stroke:none;font-family:Droid Sans Mono;-inkscape-font-specification:Droid Sans Mono"
       id="flowRoot5903"
       inkscape:path-effect="#path-effect5936"
       transform="matrix(1.9457353,0,0,1.9457353,-213.06223,-366.63464)">
      <path
         d="m 128.00858,428.87855 c 0,-1.6224 0,-3.24479 0,-4.86719 3.84635,1.56771 7.61978,2.35157 11.32031,2.35156 6.38019,1e-5 9.57029,-2.18749 9.57031,-6.5625 -2e-5,-1.89582 -0.64716,-3.35415 -1.9414,-4.375 -1.27607,-1.02082 -3.87372,-2.23305 -7.79297,-3.63672 -3.79168,-1.33071 -6.51694,-2.91664 -8.17578,-4.75781 -1.64063,-1.85935 -2.46094,-4.2656 -2.46094,-7.21875 0,-3.17184 1.16666,-5.651 3.5,-7.4375 2.35155,-1.80465 5.569,-2.70699 9.65234,-2.70703 4.17446,4e-5 7.96612,0.71098 11.375,2.13281 -0.58333,1.49479 -1.16666,2.98959 -1.75,4.48438 -3.51825,-1.42184 -6.7995,-2.13278 -9.84375,-2.13282 -5.34115,4e-5 -8.01172,1.90499 -8.01172,5.71485 0,1.8594 0.59244,3.35419 1.77735,4.48437 1.20311,1.13024 3.67316,2.34248 7.41015,3.63672 4.48436,1.60419 7.47394,3.26304 8.96875,4.97656 1.513,1.69533 2.26951,3.88283 2.26954,6.5625 -3e-5,3.50001 -1.26696,6.25261 -3.80079,8.25782 -2.51564,1.98698 -6.09767,2.98047 -10.74609,2.98047 -4.83074,0 -8.60417,-0.62891 -11.32031,-1.88672 z"
         id="path5912"
         inkscape:original-d="m 128.13672,429.26661 0,-4.86719 c 3.84635,1.56771 7.61978,2.35157 11.32031,2.35156 6.38019,10e-6 9.57029,-2.18749 9.57031,-6.5625 -2e-5,-1.89582 -0.64716,-3.35415 -1.9414,-4.375 -1.27607,-1.02082 -3.87372,-2.23305 -7.79297,-3.63672 -3.79168,-1.33071 -6.51694,-2.91664 -8.17578,-4.75781 -1.64063,-1.85935 -2.46094,-4.2656 -2.46094,-7.21875 0,-3.17184 1.16666,-5.651 3.5,-7.4375 2.35155,-1.80465 5.569,-2.70699 9.65234,-2.70703 4.17446,4e-5 7.96612,0.71098 11.375,2.13281 l -1.75,4.48438 c -3.51825,-1.42184 -6.7995,-2.13278 -9.84375,-2.13282 -5.34115,4e-5 -8.01172,1.90499 -8.01172,5.71485 0,1.8594 0.59244,3.35419 1.77735,4.48437 1.20311,1.13024 3.67316,2.34248 7.41015,3.63672 4.48436,1.60419 7.47394,3.26304 8.96875,4.97656 1.513,1.69533 2.26951,3.88283 2.26954,6.5625 -3e-5,3.50001 -1.26696,6.25261 -3.80079,8.25782 -2.51564,1.98698 -6.09767,2.98047 -10.74609,2.98047 -4.83074,0 -8.60417,-0.62891 -11.32031,-1.88672"
         inkscape:connector-curvature="0"
         style="fill:#000000;fill-opacity:1" />
      <path
         d="m 187.69998,416.1637 c -7.05468,0 -14.10937,0 -21.16406,0 0.14583,6.83595 3.28124,10.25391 9.40625,10.25391 3.55467,0 6.92706,-0.6927 10.11719,-2.07813 0,1.45833 0,2.91667 0,4.375 -3.02607,1.36719 -6.34377,2.05079 -9.95313,2.05079 -4.46615,0 -8.03907,-1.35808 -10.71875,-4.07422 -2.67969,-2.73437 -4.01953,-6.48958 -4.01953,-11.26563 0,-4.84894 1.23047,-8.68617 3.69141,-11.51172 2.47916,-2.84372 5.78775,-4.26559 9.92578,-4.26562 3.86456,3e-5 6.94529,1.22138 9.24219,3.66406 2.31507,2.44273 3.47263,5.69664 3.47265,9.76172 0,1.02995 0,2.05989 0,3.08984 z m -21.05468,-4.04687 c 5.22266,0 10.44532,0 15.66797,0 -3e-5,-5.55987 -2.47919,-8.33982 -7.4375,-8.33985 -5.01304,3e-5 -7.75652,2.77998 -8.23047,8.33985 z"
         id="path5914"
         inkscape:original-d="m 187.82812,416.55176 -21.16406,0 c 0.14583,6.83595 3.28124,10.25391 9.40625,10.25391 3.55467,0 6.92706,-0.6927 10.11719,-2.07813 l 0,4.375 c -3.02607,1.36719 -6.34377,2.05079 -9.95313,2.05079 -4.46615,0 -8.03907,-1.35808 -10.71875,-4.07422 -2.67969,-2.73437 -4.01953,-6.48958 -4.01953,-11.26563 0,-4.84894 1.23047,-8.68617 3.69141,-11.51172 2.47916,-2.84372 5.78775,-4.26559 9.92578,-4.26562 3.86456,3e-5 6.94529,1.22138 9.24219,3.66406 2.31507,2.44273 3.47263,5.69664 3.47265,9.76172 l 0,3.08984 m -21.05468,-4.04687 15.66797,0 c -3e-5,-5.55987 -2.47919,-8.33982 -7.4375,-8.33985 -5.01304,3e-5 -7.75652,2.77998 -8.23047,8.33985"
         inkscape:connector-curvature="0"
         style="fill:#000000;fill-opacity:1" />
      <path
         d="m 215.56327,430.21839 c 0,-6.44401 0,-12.88802 0,-19.33203 -3e-5,-4.73956 -2.1693,-7.10935 -6.50782,-7.10938 -5.59636,3e-5 -8.39454,3.62763 -8.39453,10.88282 0,5.1862 0,10.37239 0,15.55859 -1.65885,0 -3.3177,0 -4.97656,0 0,-10.00781 0,-20.01563 0,-30.02344 1.33985,0 2.67969,0 4.01953,0 0.2461,1.34896 0.49219,2.69792 0.73828,4.04688 0.0911,0 0.1823,0 0.27344,0 1.87759,-3.06247 4.94009,-4.59372 9.1875,-4.59375 7.09112,3e-5 10.63669,3.65497 10.63672,10.96484 0,6.53516 0,13.07031 0,19.60547 -1.65885,0 -3.3177,0 -4.97656,0 z"
         id="path5916"
         inkscape:original-d="m 215.69141,430.60645 0,-19.33203 c -3e-5,-4.73956 -2.1693,-7.10935 -6.50782,-7.10938 -5.59636,3e-5 -8.39454,3.62763 -8.39453,10.88282 l 0,15.55859 -4.97656,0 0,-30.02344 4.01953,0 0.73828,4.04688 0.27344,0 c 1.87759,-3.06247 4.94009,-4.59372 9.1875,-4.59375 7.09112,3e-5 10.63669,3.65497 10.63672,10.96484 l 0,19.60547 -4.97656,0"
         inkscape:connector-curvature="0"
         style="fill:#000000;fill-opacity:1" />
      <path
         d="m 249.41483,426.19886 c -0.0729,0 -0.14583,0 -0.21875,0 -2.05992,3.04427 -4.99481,4.56641 -8.80469,4.56641 -3.66407,0 -6.54428,-1.35808 -8.64062,-4.07422 -2.07813,-2.73437 -3.11719,-6.54426 -3.11719,-11.42969 0,-4.92186 1.04817,-8.74998 3.14453,-11.48438 2.09635,-2.75257 4.96744,-4.12887 8.61328,-4.1289 3.75519,3e-5 6.69008,1.45836 8.80469,4.375 0.10938,0 0.21875,0 0.32812,0 -0.21877,-2.35154 -0.32815,-3.8281 -0.32812,-4.42969 0,-3.97396 0,-7.94791 0,-11.92187 1.65886,0 3.31771,0 4.97656,0 0,14.18229 0,28.36458 0,42.54687 -1.33984,0 -2.67968,0 -4.01953,0 -0.24609,-1.33984 -0.49218,-2.67969 -0.73828,-4.01953 z m -0.21875,-9.81641 c 0,-0.3737 0,-0.74739 0,-1.12109 -3e-5,-4.138 -0.63805,-7.08201 -1.91406,-8.83203 -1.25784,-1.7682 -3.27216,-2.65232 -6.04297,-2.65235 -4.95835,3e-5 -7.43751,3.84638 -7.4375,11.53907 -1e-5,7.54688 2.49738,11.32031 7.49218,11.32031 2.77082,0 4.7578,-0.80208 5.96094,-2.40625 1.22133,-1.62239 1.86847,-4.23827 1.94141,-7.84766 z"
         id="path5918"
         inkscape:original-d="m 249.54297,426.58692 -0.21875,0 c -2.05992,3.04427 -4.99481,4.56641 -8.80469,4.56641 -3.66407,0 -6.54428,-1.35808 -8.64062,-4.07422 -2.07813,-2.73437 -3.11719,-6.54426 -3.11719,-11.42969 0,-4.92186 1.04817,-8.74998 3.14453,-11.48438 2.09635,-2.75257 4.96744,-4.12887 8.61328,-4.1289 3.75519,3e-5 6.69008,1.45836 8.80469,4.375 l 0.32812,0 c -0.21877,-2.35154 -0.32815,-3.8281 -0.32812,-4.42969 l 0,-11.92187 4.97656,0 0,42.54687 -4.01953,0 -0.73828,-4.01953 m -0.21875,-9.81641 0,-1.12109 c -3e-5,-4.138 -0.63805,-7.08201 -1.91406,-8.83203 -1.25784,-1.7682 -3.27216,-2.65232 -6.04297,-2.65235 -4.95835,3e-5 -7.43751,3.84638 -7.4375,11.53907 -1e-5,7.54688 2.49738,11.32031 7.49218,11.32031 2.77082,0 4.7578,-0.80208 5.96094,-2.40625 1.22133,-1.62239 1.86847,-4.23827 1.94141,-7.84766"
         inkscape:connector-curvature="0"
         style="fill:#000000;fill-opacity:1" />
      <path
         d="m 316.51639,430.21839 c -0.33724,-1.38542 -0.67448,-2.77083 -1.01172,-4.15625 -0.0729,0 -0.14583,0 -0.21875,0 -1.40367,1.76823 -2.84377,2.9987 -4.32031,3.69141 -1.47658,0.67448 -3.38153,1.01172 -5.71484,1.01172 -2.97137,0 -5.3047,-0.78386 -7,-2.35157 -1.67709,-1.5677 -2.51563,-3.76431 -2.51563,-6.58984 0,-6.05207 4.64843,-9.22394 13.94531,-9.51563 1.85026,-0.0638 3.70052,-0.1276 5.55078,-0.1914 0,-0.62891 0,-1.25781 0,-1.88672 -2e-5,-4.30206 -2.22397,-6.4531 -6.67187,-6.45313 -2.6797,3e-5 -5.66928,0.74743 -8.96875,2.24219 -0.57422,-1.2487 -1.14844,-2.49739 -1.72266,-3.74609 3.57291,-1.74997 7.06379,-2.62497 10.47266,-2.625 4.138,3e-5 7.12758,0.793 8.96875,2.3789 1.85935,1.58597 2.78903,4.12894 2.78906,7.62891 0,6.85417 0,13.70833 0,20.5625 -1.19401,0 -2.38802,0 -3.58203,0 z m -1.33984,-14.68359 c -1.47656,0.0638 -2.95312,0.1276 -4.42969,0.1914 -3.57293,0.14585 -6.10678,0.71095 -7.60156,1.69532 -1.4948,0.96615 -2.2422,2.45183 -2.24219,4.45703 -1e-5,3.24479 1.82291,4.86719 5.46875,4.86718 2.67967,1e-5 4.81248,-0.73827 6.39844,-2.21484 1.60414,-1.49478 2.40622,-3.59114 2.40625,-6.28906 0,-0.90234 0,-1.80469 0,-2.70703 z"
         id="path5920"
         inkscape:original-d="m 316.64453,430.60645 -1.01172,-4.15625 -0.21875,0 c -1.40367,1.76823 -2.84377,2.9987 -4.32031,3.69141 -1.47658,0.67448 -3.38153,1.01172 -5.71484,1.01172 -2.97137,0 -5.3047,-0.78386 -7,-2.35157 -1.67709,-1.5677 -2.51563,-3.76431 -2.51563,-6.58984 0,-6.05207 4.64843,-9.22394 13.94531,-9.51563 l 5.55078,-0.1914 0,-1.88672 c -2e-5,-4.30206 -2.22397,-6.4531 -6.67187,-6.45313 -2.6797,3e-5 -5.66928,0.74743 -8.96875,2.24219 l -1.72266,-3.74609 c 3.57291,-1.74997 7.06379,-2.62497 10.47266,-2.625 4.138,3e-5 7.12758,0.793 8.96875,2.3789 1.85935,1.58597 2.78903,4.12894 2.78906,7.62891 l 0,20.5625 -3.58203,0 m -1.33984,-14.68359 -4.42969,0.1914 c -3.57293,0.14585 -6.10678,0.71095 -7.60156,1.69532 -1.4948,0.96615 -2.2422,2.45183 -2.24219,4.45703 -10e-6,3.24479 1.82291,4.86719 5.46875,4.86718 2.67967,1e-5 4.81248,-0.73827 6.39844,-2.21484 1.60414,-1.49478 2.40622,-3.59114 2.40625,-6.28906 l 0,-2.70703"
         inkscape:connector-curvature="0"
         style="fill:#000000;fill-opacity:1" />
      <path
         d="m 363.05545,428.87855 c 0,-1.6224 0,-3.24479 0,-4.86719 3.84635,1.56771 7.61978,2.35157 11.32032,2.35156 6.38018,1e-5 9.57028,-2.18749 9.57031,-6.5625 -3e-5,-1.89582 -0.64716,-3.35415 -1.94141,-4.375 -1.27606,-1.02082 -3.87371,-2.23305 -7.79297,-3.63672 -3.79167,-1.33071 -6.51693,-2.91664 -8.17578,-4.75781 -1.64063,-1.85935 -2.46094,-4.2656 -2.46094,-7.21875 0,-3.17184 1.16667,-5.651 3.5,-7.4375 2.35156,-1.80465 5.569,-2.70699 9.65235,-2.70703 4.17446,4e-5 7.96612,0.71098 11.375,2.13281 -0.58333,1.49479 -1.16666,2.98959 -1.75,4.48438 -3.51825,-1.42184 -6.7995,-2.13278 -9.84375,-2.13282 -5.34116,4e-5 -8.01173,1.90499 -8.01172,5.71485 -1e-5,1.8594 0.59244,3.35419 1.77734,4.48437 1.20312,1.13024 3.67317,2.34248 7.41016,3.63672 4.48435,1.60419 7.47393,3.26304 8.96875,4.97656 1.51299,1.69533 2.2695,3.88283 2.26953,6.5625 -3e-5,3.50001 -1.26695,6.25261 -3.80078,8.25782 -2.51565,1.98698 -6.09768,2.98047 -10.74609,2.98047 -4.83074,0 -8.60418,-0.62891 -11.32032,-1.88672 z"
         id="path5922"
         inkscape:original-d="m 363.18359,429.26661 0,-4.86719 c 3.84635,1.56771 7.61978,2.35157 11.32032,2.35156 6.38018,10e-6 9.57028,-2.18749 9.57031,-6.5625 -3e-5,-1.89582 -0.64716,-3.35415 -1.94141,-4.375 -1.27606,-1.02082 -3.87371,-2.23305 -7.79297,-3.63672 -3.79167,-1.33071 -6.51693,-2.91664 -8.17578,-4.75781 -1.64063,-1.85935 -2.46094,-4.2656 -2.46094,-7.21875 0,-3.17184 1.16667,-5.651 3.5,-7.4375 2.35156,-1.80465 5.569,-2.70699 9.65235,-2.70703 4.17446,4e-5 7.96612,0.71098 11.375,2.13281 l -1.75,4.48438 c -3.51825,-1.42184 -6.7995,-2.13278 -9.84375,-2.13282 -5.34116,4e-5 -8.01173,1.90499 -8.01172,5.71485 -10e-6,1.8594 0.59244,3.35419 1.77734,4.48437 1.20312,1.13024 3.67317,2.34248 7.41016,3.63672 4.48435,1.60419 7.47393,3.26304 8.96875,4.97656 1.51299,1.69533 2.2695,3.88283 2.26953,6.5625 -3e-5,3.50001 -1.26695,6.25261 -3.80078,8.25782 -2.51565,1.98698 -6.09768,2.98047 -10.74609,2.98047 -4.83074,0 -8.60418,-0.62891 -11.32032,-1.88672"
         inkscape:connector-curvature="0"
         style="fill:#000000;fill-opacity:1" />
      <path
         d="m 402.07498,426.41761 c -0.10937,0 -0.21874,0 -0.32812,0 0.21874,2.35156 0.32812,3.82812 0.32812,4.42969 0,4.27474 0,8.54948 0,12.82422 -1.65885,0 -3.3177,0 -4.97656,0 0,-14.49219 0,-28.98438 0,-43.47657 1.33985,0 2.67969,0 4.01953,0 0.2461,1.34896 0.49219,2.69792 0.73828,4.04688 0.0729,0 0.14584,0 0.21875,0 2.0052,-3.06247 4.94009,-4.59372 8.80469,-4.59375 3.66404,3e-5 6.53513,1.36722 8.61328,4.10156 2.09633,2.71617 3.14451,6.51695 3.14453,11.40234 -2e-5,4.92189 -1.0482,8.75913 -3.14453,11.51172 -2.09638,2.73438 -4.96747,4.10157 -8.61328,4.10157 -3.77345,0 -6.70834,-1.44922 -8.80469,-4.34766 z m 0,-12.38672 c 0,0.3737 0,0.74739 0,1.12109 0,4.13804 0.6289,7.09116 1.88672,8.85938 1.27603,1.75 3.29947,2.625 6.07032,2.625 4.95831,0 7.43747,-3.84635 7.4375,-11.53906 -3e-5,-7.54685 -2.49742,-11.32029 -7.49219,-11.32032 -2.77085,3e-5 -4.76694,0.80211 -5.98828,2.40625 -1.20314,1.60419 -1.84116,4.22008 -1.91407,7.84766 z"
         id="path5924"
         inkscape:original-d="m 402.20312,426.80567 -0.32812,0 c 0.21874,2.35156 0.32812,3.82812 0.32812,4.42969 l 0,12.82422 -4.97656,0 0,-43.47657 4.01953,0 0.73828,4.04688 0.21875,0 c 2.0052,-3.06247 4.94009,-4.59372 8.80469,-4.59375 3.66404,3e-5 6.53513,1.36722 8.61328,4.10156 2.09633,2.71617 3.14451,6.51695 3.14453,11.40234 -2e-5,4.92189 -1.0482,8.75913 -3.14453,11.51172 -2.09638,2.73438 -4.96747,4.10157 -8.61328,4.10157 -3.77345,0 -6.70834,-1.44922 -8.80469,-4.34766 m 0,-12.38672 0,1.12109 c 0,4.13804 0.6289,7.09116 1.88672,8.85938 1.27603,1.75 3.29947,2.625 6.07032,2.625 4.95831,0 7.43747,-3.84635 7.4375,-11.53906 -3e-5,-7.54685 -2.49742,-11.32029 -7.49219,-11.32032 -2.77085,3e-5 -4.76694,0.80211 -5.98828,2.40625 -1.20314,1.60419 -1.84116,4.22008 -1.91407,7.84766"
         inkscape:connector-curvature="0"
         style="fill:#000000;fill-opacity:1" />
      <path
         d="m 450.82889,430.21839 c -0.33724,-1.38542 -0.67448,-2.77083 -1.01172,-4.15625 -0.0729,0 -0.14583,0 -0.21875,0 -1.40367,1.76823 -2.84377,2.9987 -4.32031,3.69141 -1.47658,0.67448 -3.38153,1.01172 -5.71484,1.01172 -2.97137,0 -5.3047,-0.78386 -7,-2.35157 -1.67709,-1.5677 -2.51563,-3.76431 -2.51563,-6.58984 0,-6.05207 4.64843,-9.22394 13.94531,-9.51563 1.85026,-0.0638 3.70052,-0.1276 5.55078,-0.1914 0,-0.62891 0,-1.25781 0,-1.88672 -2e-5,-4.30206 -2.22397,-6.4531 -6.67187,-6.45313 -2.6797,3e-5 -5.66928,0.74743 -8.96875,2.24219 -0.57422,-1.2487 -1.14844,-2.49739 -1.72266,-3.74609 3.57291,-1.74997 7.06379,-2.62497 10.47266,-2.625 4.138,3e-5 7.12758,0.793 8.96875,2.3789 1.85935,1.58597 2.78903,4.12894 2.78906,7.62891 0,6.85417 0,13.70833 0,20.5625 -1.19401,0 -2.38802,0 -3.58203,0 z m -1.33984,-14.68359 c -1.47656,0.0638 -2.95312,0.1276 -4.42969,0.1914 -3.57293,0.14585 -6.10678,0.71095 -7.60156,1.69532 -1.4948,0.96615 -2.2422,2.45183 -2.24219,4.45703 -1e-5,3.24479 1.82291,4.86719 5.46875,4.86718 2.67967,1e-5 4.81248,-0.73827 6.39844,-2.21484 1.60414,-1.49478 2.40622,-3.59114 2.40625,-6.28906 0,-0.90234 0,-1.80469 0,-2.70703 z"
         id="path5926"
         inkscape:original-d="m 450.95703,430.60645 -1.01172,-4.15625 -0.21875,0 c -1.40367,1.76823 -2.84377,2.9987 -4.32031,3.69141 -1.47658,0.67448 -3.38153,1.01172 -5.71484,1.01172 -2.97137,0 -5.3047,-0.78386 -7,-2.35157 -1.67709,-1.5677 -2.51563,-3.76431 -2.51563,-6.58984 0,-6.05207 4.64843,-9.22394 13.94531,-9.51563 l 5.55078,-0.1914 0,-1.88672 c -2e-5,-4.30206 -2.22397,-6.4531 -6.67187,-6.45313 -2.6797,3e-5 -5.66928,0.74743 -8.96875,2.24219 l -1.72266,-3.74609 c 3.57291,-1.74997 7.06379,-2.62497 10.47266,-2.625 4.138,3e-5 7.12758,0.793 8.96875,2.3789 1.85935,1.58597 2.78903,4.12894 2.78906,7.62891 l 0,20.5625 -3.58203,0 m -1.33984,-14.68359 -4.42969,0.1914 c -3.57293,0.14585 -6.10678,0.71095 -7.60156,1.69532 -1.4948,0.96615 -2.2422,2.45183 -2.24219,4.45703 -10e-6,3.24479 1.82291,4.86719 5.46875,4.86718 2.67967,1e-5 4.81248,-0.73827 6.39844,-2.21484 1.60414,-1.49478 2.40622,-3.59114 2.40625,-6.28906 l 0,-2.70703"
         inkscape:connector-curvature="0"
         style="fill:#000000;fill-opacity:1" />
      <path
         d="m 487.82498,426.11683 c 0,1.25781 0,2.51563 0,3.77344 -2.36981,0.58333 -4.66668,0.875 -6.89062,0.875 -6.59897,0 -9.89845,-3.13542 -9.89844,-9.40625 0,-5.80599 0,-11.61198 0,-17.41797 -2.43359,0 -4.86718,0 -7.30078,0 0,-0.85677 0,-1.71355 0,-2.57032 2.4336,-0.44661 4.86719,-0.89323 7.30078,-1.33984 0.70183,-2.61589 1.40365,-5.23177 2.10547,-7.84766 0.95703,0 1.91406,0 2.87109,0 0,2.67057 0,5.34115 0,8.01172 3.99219,0 7.98438,0 11.97657,0 0,1.2487 0,2.4974 0,3.7461 -3.99219,0 -7.98438,0 -11.97657,0 0,5.80599 0,11.61198 0,17.41797 -10e-6,3.55469 1.74999,5.33203 5.25,5.33203 1.69529,0 3.88279,-0.19141 6.5625,-0.57422 z"
         id="path5928"
         inkscape:original-d="m 487.95312,426.50489 0,3.77344 c -2.36981,0.58333 -4.66668,0.875 -6.89062,0.875 -6.59897,0 -9.89845,-3.13542 -9.89844,-9.40625 l 0,-17.41797 -7.30078,0 0,-2.57032 7.30078,-1.33984 2.10547,-7.84766 2.87109,0 0,8.01172 11.97657,0 0,3.7461 -11.97657,0 0,17.41797 c -1e-5,3.55469 1.74999,5.33203 5.25,5.33203 1.69529,0 3.88279,-0.19141 6.5625,-0.57422"
         inkscape:connector-curvature="0"
         style="fill:#000000;fill-opacity:1" />
      <path
         d="m 518.72342,430.21839 c -0.24609,-1.33984 -0.49218,-2.67969 -0.73828,-4.01953 -0.0911,0 -0.18229,0 -0.27344,0 -1.91408,3.04427 -4.95835,4.56641 -9.13281,4.56641 -7.12761,0 -10.69141,-3.65495 -10.69141,-10.96485 0,-6.53516 0,-13.07031 0,-19.60547 1.65886,0 3.31772,0 4.97657,0 0,6.44401 0,12.88802 0,19.33203 -1e-5,4.73959 2.15103,7.10938 6.45312,7.10938 2.93488,0 5.0768,-0.83854 6.42578,-2.51563 1.34894,-1.6953 2.02342,-4.47524 2.02344,-8.33984 0,-5.19531 0,-10.39063 0,-15.58594 1.65886,0 3.31771,0 4.97656,0 0,10.00781 0,20.01563 0,30.02344 -1.33984,0 -2.67968,0 -4.01953,0 z"
         id="path5930"
         inkscape:original-d="m 518.85156,430.60645 -0.73828,-4.01953 -0.27344,0 c -1.91408,3.04427 -4.95835,4.56641 -9.13281,4.56641 -7.12761,0 -10.69141,-3.65495 -10.69141,-10.96485 l 0,-19.60547 4.97657,0 0,19.33203 c -10e-6,4.73959 2.15103,7.10938 6.45312,7.10938 2.93488,0 5.0768,-0.83854 6.42578,-2.51563 1.34894,-1.6953 2.02342,-4.47524 2.02344,-8.33984 l 0,-15.58594 4.97656,0 0,30.02344 -4.01953,0"
         inkscape:connector-curvature="0"
         style="fill:#000000;fill-opacity:1" />
      <path
         d="m 541.63748,391.58167 c -2.4427,-0.19141 -4.88541,-0.38281 -7.32812,-0.57422 0,-1.11198 0,-2.22395 0,-3.33593 4.11068,0 8.22136,0 12.33203,0 0,12.8789 0,25.75781 0,38.63671 3.20834,0.18229 6.41667,0.36459 9.625,0.54688 0,1.12109 0,2.24219 0,3.36328 -8.01172,0 -16.02344,0 -24.03516,0 0,-1.12109 0,-2.24219 0,-3.36328 3.13542,-0.18229 6.27084,-0.36459 9.40625,-0.54688 0,-11.57552 0,-23.15104 0,-34.72656 z"
         id="path5932"
         inkscape:original-d="m 541.76562,391.96973 -7.32812,-0.57422 0,-3.33593 12.33203,0 0,38.63671 9.625,0.54688 0,3.36328 -24.03516,0 0,-3.36328 9.40625,-0.54688 0,-34.72656"
         inkscape:connector-curvature="0"
         style="fill:#000000;fill-opacity:1" />
      <path
         d="m 585.14139,430.21839 c -0.33724,-1.38542 -0.67448,-2.77083 -1.01172,-4.15625 -0.0729,0 -0.14583,0 -0.21875,0 -1.40367,1.76823 -2.84377,2.9987 -4.32031,3.69141 -1.47658,0.67448 -3.38153,1.01172 -5.71484,1.01172 -2.97137,0 -5.3047,-0.78386 -7,-2.35157 -1.67709,-1.5677 -2.51563,-3.76431 -2.51563,-6.58984 0,-6.05207 4.64843,-9.22394 13.94531,-9.51563 1.85026,-0.0638 3.70052,-0.1276 5.55078,-0.1914 0,-0.62891 0,-1.25781 0,-1.88672 -2e-5,-4.30206 -2.22397,-6.4531 -6.67187,-6.45313 -2.6797,3e-5 -5.66928,0.74743 -8.96875,2.24219 -0.57422,-1.2487 -1.14844,-2.49739 -1.72266,-3.74609 3.57291,-1.74997 7.06379,-2.62497 10.47266,-2.625 4.138,3e-5 7.12758,0.793 8.96875,2.3789 1.85935,1.58597 2.78903,4.12894 2.78906,7.62891 0,6.85417 0,13.70833 0,20.5625 -1.19401,0 -2.38802,0 -3.58203,0 z m -1.33984,-14.68359 c -1.47656,0.0638 -2.95312,0.1276 -4.42969,0.1914 -3.57293,0.14585 -6.10678,0.71095 -7.60156,1.69532 -1.4948,0.96615 -2.2422,2.45183 -2.24219,4.45703 -10e-6,3.24479 1.82291,4.86719 5.46875,4.86718 2.67967,1e-5 4.81248,-0.73827 6.39844,-2.21484 1.60414,-1.49478 2.40622,-3.59114 2.40625,-6.28906 0,-0.90234 0,-1.80469 0,-2.70703 z"
         id="path5934"
         inkscape:original-d="m 585.26953,430.60645 -1.01172,-4.15625 -0.21875,0 c -1.40367,1.76823 -2.84377,2.9987 -4.32031,3.69141 -1.47658,0.67448 -3.38153,1.01172 -5.71484,1.01172 -2.97137,0 -5.3047,-0.78386 -7,-2.35157 -1.67709,-1.5677 -2.51563,-3.76431 -2.51563,-6.58984 0,-6.05207 4.64843,-9.22394 13.94531,-9.51563 l 5.55078,-0.1914 0,-1.88672 c -2e-5,-4.30206 -2.22397,-6.4531 -6.67187,-6.45313 -2.6797,3e-5 -5.66928,0.74743 -8.96875,2.24219 l -1.72266,-3.74609 c 3.57291,-1.74997 7.06379,-2.62497 10.47266,-2.625 4.138,3e-5 7.12758,0.793 8.96875,2.3789 1.85935,1.58597 2.78903,4.12894 2.78906,7.62891 l 0,20.5625 -3.58203,0 m -1.33984,-14.68359 -4.42969,0.1914 c -3.57293,0.14585 -6.10678,0.71095 -7.60156,1.69532 -1.4948,0.96615 -2.2422,2.45183 -2.24219,4.45703 -10e-6,3.24479 1.82291,4.86719 5.46875,4.86718 2.67967,1e-5 4.81248,-0.73827 6.39844,-2.21484 1.60414,-1.49478 2.40622,-3.59114 2.40625,-6.28906 l 0,-2.70703"
         inkscape:connector-curvature="0"
         style="fill:#000000;fill-opacity:1" />
    </g>
  </g>
</svg>
